<svg width="122" height="58" viewBox="0 0 122 58" fill="none" xmlns="http://www.w3.org/2000/svg">
<path d="M1.13778 36H3.90554V30.5923H9.52415V36H12.2855V22.9091H9.52415V28.3104H3.90554V22.9091H1.13778V36ZM17.3161 36.1854C18.767 36.1854 19.7067 35.5526 20.1861 34.6385H20.2628V36H22.8452V29.3778C22.8452 27.0384 20.8636 26.054 18.6776 26.054C16.3253 26.054 14.7784 27.179 14.4013 28.9688L16.9197 29.1733C17.1051 28.5213 17.6868 28.0419 18.6648 28.0419C19.5916 28.0419 20.1222 28.5085 20.1222 29.3139V29.3523C20.1222 29.9851 19.451 30.0682 17.7443 30.2344C15.8011 30.4134 14.0561 31.0653 14.0561 33.2578C14.0561 35.201 15.4432 36.1854 17.3161 36.1854ZM18.0959 34.3061C17.2585 34.3061 16.6577 33.9162 16.6577 33.1683C16.6577 32.4013 17.2905 32.0241 18.2493 31.8899C18.8438 31.8068 19.8153 31.6662 20.1413 31.4489V32.4908C20.1413 33.5199 19.2912 34.3061 18.0959 34.3061ZM25.0089 36H27.6935V34.4276H27.815C28.1921 35.2457 29.0167 36.1598 30.6019 36.1598C32.8391 36.1598 34.5842 34.3892 34.5842 31.1037C34.5842 27.7287 32.7624 26.054 30.6083 26.054C28.9656 26.054 28.1793 27.032 27.815 27.831H27.7319V22.9091H25.0089V36ZM27.6744 31.0909C27.6744 29.3395 28.4158 28.2209 29.739 28.2209C31.0877 28.2209 31.8036 29.3906 31.8036 31.0909C31.8036 32.804 31.0749 33.9929 29.739 33.9929C28.4286 33.9929 27.6744 32.8423 27.6744 31.0909ZM36.4011 36H39.1241V26.1818H36.4011V36ZM37.769 24.9162C38.5808 24.9162 39.2456 24.2962 39.2456 23.5355C39.2456 22.7812 38.5808 22.1612 37.769 22.1612C36.9636 22.1612 36.2988 22.7812 36.2988 23.5355C36.2988 24.2962 36.9636 24.9162 37.769 24.9162ZM46.5277 26.1818H44.6804V23.8295H41.9574V26.1818H40.6151V28.2273H41.9574V33.3409C41.9446 35.2649 43.255 36.2173 45.2301 36.1342C45.9332 36.1087 46.4318 35.968 46.7067 35.8786L46.2784 33.8523C46.1442 33.8778 45.8565 33.9418 45.6009 33.9418C45.0575 33.9418 44.6804 33.7372 44.6804 32.983V28.2273H46.5277V26.1818Z" fill="#121212"/>
<path d="M1.58523 18H3.17045V12.1449H10.1506V18H11.7358V4.90909H10.1506V10.7386H3.17045V4.90909H1.58523V18ZM17.5941 18.2301C19.3072 18.2301 20.2021 17.3097 20.5089 16.6705H20.5856V18H22.0941V11.5312C22.0941 8.41193 19.7163 8.05398 18.4634 8.05398C16.9805 8.05398 15.293 8.56534 14.5259 10.3551L15.9577 10.8665C16.2901 10.1506 17.0763 9.38352 18.5146 9.38352C19.9016 9.38352 20.5856 10.1186 20.5856 11.3778V11.429C20.5856 12.1577 19.8441 12.0938 18.0543 12.3239C16.2326 12.5604 14.2447 12.9631 14.2447 15.2131C14.2447 17.1307 15.7276 18.2301 17.5941 18.2301ZM17.8242 16.875C16.6225 16.875 15.7532 16.3381 15.7532 15.2898C15.7532 14.1392 16.8015 13.7812 17.9776 13.6278C18.6168 13.5511 20.3299 13.3722 20.5856 13.0653V14.446C20.5856 15.6733 19.614 16.875 17.8242 16.875ZM25.052 18H26.5094V16.4915H26.6884C27.0208 17.0284 27.66 18.2045 29.552 18.2045C32.0066 18.2045 33.7196 16.2358 33.7196 13.1165C33.7196 10.0227 32.0066 8.05398 29.5265 8.05398C27.6088 8.05398 27.0208 9.23011 26.6884 9.74148H26.5605V4.90909H25.052V18ZM26.535 13.0909C26.535 10.892 27.5066 9.40909 29.3475 9.40909C31.2651 9.40909 32.2111 11.0199 32.2111 13.0909C32.2111 15.1875 31.2395 16.8494 29.3475 16.8494C27.5321 16.8494 26.535 15.3153 26.535 13.0909ZM36.0272 18H37.5357V8.18182H36.0272V18ZM36.7942 6.54545C37.3823 6.54545 37.8681 6.08523 37.8681 5.52273C37.8681 4.96023 37.3823 4.5 36.7942 4.5C36.2061 4.5 35.7203 4.96023 35.7203 5.52273C35.7203 6.08523 36.2061 6.54545 36.7942 6.54545ZM44.5685 8.18182H42.4719V5.82955H40.9634V8.18182H39.4805V9.46023H40.9634V15.5966C40.9634 17.3097 42.3441 18.1278 43.6225 18.1278C44.185 18.1278 44.543 18.0256 44.7475 17.9489L44.4407 16.5938C44.3129 16.6193 44.1083 16.6705 43.7759 16.6705C43.1112 16.6705 42.4719 16.4659 42.4719 15.1875V9.46023H44.5685V8.18182Z" fill="#121212"/>
<path d="M0.84375 54H4.39773V48.8864H9.10227V54H12.6562V40.9091H9.10227V46.0227H4.39773V40.9091H0.84375V54ZM17.1307 54.1534C18.4091 54.1534 19.3743 53.7188 19.9688 52.6193H20.0455V54H23.3438V47.2756C23.3438 45.4602 21.6243 44.054 18.8182 44.054C15.8842 44.054 14.4396 45.5881 14.3182 47.3778H17.5653C17.6484 46.7706 18.0959 46.483 18.767 46.483C19.3807 46.483 19.8153 46.7642 19.8153 47.2756V47.3011C19.8153 47.87 19.1889 48.049 17.5398 48.1705C15.5135 48.3175 13.9347 49.1357 13.9347 51.2898C13.9347 53.2457 15.2514 54.1534 17.1307 54.1534ZM18.2812 51.929C17.6804 51.929 17.2585 51.6349 17.2585 51.0852C17.2585 50.5803 17.6165 50.1903 18.4347 50.0625C18.9972 49.973 19.4702 49.858 19.8409 49.7045V50.5227C19.8409 51.4176 19.0803 51.929 18.2812 51.929ZM24.9785 54H28.4814V52.3892H28.5581C28.9672 53.3864 29.9132 54.1278 31.2939 54.1278C33.3904 54.1278 35.1547 52.4915 35.1547 49.0909C35.1547 45.5369 33.2626 44.054 31.3194 44.054C29.862 44.054 28.9416 44.8977 28.5581 45.8949H28.5069V40.9091H24.9785V54ZM28.4302 49.0909C28.4302 47.6335 29.0183 46.7642 29.9899 46.7642C30.9615 46.7642 31.524 47.6335 31.524 49.0909C31.524 50.5483 30.9615 51.4176 29.9899 51.4176C29.0183 51.4176 28.4302 50.5227 28.4302 49.0909ZM36.6312 54H40.1596V44.1818H36.6312V54ZM38.3954 43.1591C39.3542 43.1591 40.1341 42.4368 40.1341 41.5483C40.1341 40.6598 39.3542 39.9375 38.3954 39.9375C37.4366 39.9375 36.6568 40.6598 36.6568 41.5483C36.6568 42.4368 37.4366 43.1591 38.3954 43.1591ZM47.8125 44.1818H46.125V41.8295H42.5966V44.1818H41.3438V46.7386H42.5966V51.1747C42.571 53.233 43.843 54.2749 46.2784 54.1406C47.0774 54.0959 47.6719 53.9297 47.9915 53.8338L47.4801 51.3537C47.3459 51.3857 47.0007 51.456 46.7898 51.456C46.3295 51.456 46.125 51.2514 46.125 50.8423V46.7386H47.8125V44.1818Z" fill="#121212"/>
<path d="M59.799 9H63.1996C63.1868 6.4304 61.2053 4.73011 58.0348 4.73011C54.9219 4.73011 52.723 6.40483 52.7422 8.89773C52.7358 10.9432 54.1548 12.081 56.4751 12.5795L57.7791 12.8608C59.2365 13.1804 59.7351 13.5447 59.7479 14.1392C59.7351 14.7848 59.147 15.2386 58.0092 15.2386C56.6477 15.2386 55.8423 14.5994 55.7848 13.3977H52.4098C52.4226 16.6832 54.647 18.1534 58.0604 18.1534C61.3778 18.1534 63.3658 16.7216 63.3786 14.1392C63.3658 12.1449 62.1768 10.745 59.2876 10.125L58.2138 9.89489C56.9737 9.63281 56.4176 9.26847 56.4496 8.64205C56.456 8.06676 56.9354 7.64489 58.0348 7.64489C59.1854 7.64489 59.7287 8.14986 59.799 9ZM70.6367 8.18182H68.9492V5.82955H65.4208V8.18182H64.168V10.7386H65.4208V15.1747C65.3952 17.233 66.6673 18.2749 69.1026 18.1406C69.9016 18.0959 70.4961 17.9297 70.8157 17.8338L70.3043 15.3537C70.1701 15.3857 69.8249 15.456 69.614 15.456C69.1538 15.456 68.9492 15.2514 68.9492 14.8423V10.7386H70.6367V8.18182ZM74.8123 18.1534C76.0907 18.1534 77.0559 17.7188 77.6504 16.6193H77.7271V18H81.0254V11.2756C81.0254 9.46023 79.3059 8.05398 76.4998 8.05398C73.5659 8.05398 72.1213 9.58807 71.9998 11.3778H75.247C75.3301 10.7706 75.7775 10.483 76.4487 10.483C77.0623 10.483 77.497 10.7642 77.497 11.2756V11.3011C77.497 11.87 76.8706 12.049 75.2214 12.1705C73.1951 12.3175 71.6163 13.1357 71.6163 15.2898C71.6163 17.2457 72.9331 18.1534 74.8123 18.1534ZM75.9629 15.929C75.362 15.929 74.9402 15.6349 74.9402 15.0852C74.9402 14.5803 75.2981 14.1903 76.1163 14.0625C76.6788 13.973 77.1518 13.858 77.5226 13.7045V14.5227C77.5226 15.4176 76.7619 15.929 75.9629 15.929ZM87.4414 18.179C90.3498 18.179 92.1332 16.5107 92.1715 13.9091H88.8988C88.8221 14.9382 88.266 15.4943 87.4925 15.4943C86.5657 15.4943 85.9585 14.7017 85.9585 13.0909C85.9585 11.4801 86.5657 10.6875 87.4925 10.6875C88.2724 10.6875 88.8029 11.2436 88.8988 12.2727H92.1715C92.1523 9.71591 90.3306 8.05398 87.4414 8.05398C84.2454 8.05398 82.3533 10.0994 82.3533 13.1165C82.3533 16.1335 84.2454 18.179 87.4414 18.179ZM93.6273 18H97.1557V15.2131L97.6863 14.5419L99.687 18H103.727L100.288 12.4837L103.624 8.18182H99.6614L97.2836 11.4801H97.1557V4.90909H93.6273V18ZM108.844 18.179C111.567 18.179 113.318 16.875 113.65 14.8295H110.429C110.224 15.3857 109.643 15.6989 108.92 15.6989C107.872 15.6989 107.258 15.0085 107.258 14.0625V13.9091H113.65V13.0909C113.65 9.9652 111.733 8.05398 108.767 8.05398C105.724 8.05398 103.781 10.0739 103.781 13.1165C103.781 16.2933 105.699 18.179 108.844 18.179ZM107.258 11.9659C107.278 11.1158 107.981 10.5341 108.844 10.5341C109.719 10.5341 110.384 11.1222 110.403 11.9659H107.258ZM115.09 18H118.619V12.8864C118.619 11.7614 119.392 11.0199 120.434 11.0199C120.798 11.0199 121.386 11.0774 121.738 11.1989V8.18821C121.457 8.10511 121.15 8.05398 120.843 8.05398C119.795 8.05398 118.977 8.66761 118.619 10.0483H118.516V8.18182H115.09V18Z" fill="#121212"/>
<path d="M58.9006 27H62.3011C62.2884 24.4304 60.3068 22.7301 57.1364 22.7301C54.0234 22.7301 51.8246 24.4048 51.8438 26.8977C51.8374 28.9432 53.2564 30.081 55.5767 30.5795L56.8807 30.8608C58.3381 31.1804 58.8366 31.5447 58.8494 32.1392C58.8366 32.7848 58.2486 33.2386 57.1108 33.2386C55.7493 33.2386 54.9439 32.5994 54.8864 31.3977H51.5114C51.5241 34.6832 53.7486 36.1534 57.1619 36.1534C60.4794 36.1534 62.4673 34.7216 62.4801 32.1392C62.4673 30.1449 61.2784 28.745 58.3892 28.125L57.3153 27.8949C56.0753 27.6328 55.5192 27.2685 55.5511 26.642C55.5575 26.0668 56.0369 25.6449 57.1364 25.6449C58.2869 25.6449 58.8303 26.1499 58.9006 27ZM69.7383 26.1818H68.0508V23.8295H64.5224V26.1818H63.2695V28.7386H64.5224V33.1747C64.4968 35.233 65.7688 36.2749 68.2042 36.1406C69.0032 36.0959 69.5977 35.9297 69.9173 35.8338L69.4059 33.3537C69.2717 33.3857 68.9265 33.456 68.7156 33.456C68.2553 33.456 68.0508 33.2514 68.0508 32.8423V28.7386H69.7383V26.1818ZM73.9139 36.1534C75.1923 36.1534 76.1575 35.7188 76.752 34.6193H76.8287V36H80.127V29.2756C80.127 27.4602 78.4075 26.054 75.6014 26.054C72.6674 26.054 71.2228 27.5881 71.1014 29.3778H74.3485C74.4316 28.7706 74.8791 28.483 75.5502 28.483C76.1639 28.483 76.5985 28.7642 76.5985 29.2756V29.3011C76.5985 29.87 75.9721 30.049 74.323 30.1705C72.2967 30.3175 70.7179 31.1357 70.7179 33.2898C70.7179 35.2457 72.0346 36.1534 73.9139 36.1534ZM75.0645 33.929C74.4636 33.929 74.0417 33.6349 74.0417 33.0852C74.0417 32.5803 74.3997 32.1903 75.2179 32.0625C75.7804 31.973 76.2534 31.858 76.6241 31.7045V32.5227C76.6241 33.4176 75.8635 33.929 75.0645 33.929ZM86.543 36.179C89.4513 36.179 91.2347 34.5107 91.2731 31.9091H88.0004C87.9237 32.9382 87.3675 33.4943 86.5941 33.4943C85.6673 33.4943 85.06 32.7017 85.06 31.0909C85.06 29.4801 85.6673 28.6875 86.5941 28.6875C87.3739 28.6875 87.9045 29.2436 88.0004 30.2727H91.2731C91.2539 27.7159 89.4322 26.054 86.543 26.054C83.3469 26.054 81.4549 28.0994 81.4549 31.1165C81.4549 34.1335 83.3469 36.179 86.543 36.179ZM92.7289 36H96.2573V33.2131L96.7878 32.5419L98.7885 36H102.828L99.3894 30.4837L102.726 26.1818H98.763L96.3851 29.4801H96.2573V22.9091H92.7289V36ZM107.945 36.179C110.668 36.179 112.42 34.875 112.752 32.8295H109.53C109.326 33.3857 108.744 33.6989 108.022 33.6989C106.974 33.6989 106.36 33.0085 106.36 32.0625V31.9091H112.752V31.0909C112.752 27.9652 110.834 26.054 107.868 26.054C104.826 26.054 102.883 28.0739 102.883 31.1165C102.883 34.2933 104.8 36.179 107.945 36.179ZM106.36 29.9659C106.379 29.1158 107.082 28.5341 107.945 28.5341C108.821 28.5341 109.486 29.1222 109.505 29.9659H106.36ZM114.192 36H117.72V30.8864C117.72 29.7614 118.494 29.0199 119.536 29.0199C119.9 29.0199 120.488 29.0774 120.839 29.1989V26.1882C120.558 26.1051 120.251 26.054 119.945 26.054C118.896 26.054 118.078 26.6676 117.72 28.0483H117.618V26.1818H114.192V36Z" fill="#121212"/>
<path d="M59.799 45H63.1996C63.1868 42.4304 61.2053 40.7301 58.0348 40.7301C54.9219 40.7301 52.723 42.4048 52.7422 44.8977C52.7358 46.9432 54.1548 48.081 56.4751 48.5795L57.7791 48.8608C59.2365 49.1804 59.7351 49.5447 59.7479 50.1392C59.7351 50.7848 59.147 51.2386 58.0092 51.2386C56.6477 51.2386 55.8423 50.5994 55.7848 49.3977H52.4098C52.4226 52.6832 54.647 54.1534 58.0604 54.1534C61.3778 54.1534 63.3658 52.7216 63.3786 50.1392C63.3658 48.1449 62.1768 46.745 59.2876 46.125L58.2138 45.8949C56.9737 45.6328 56.4176 45.2685 56.4496 44.642C56.456 44.0668 56.9354 43.6449 58.0348 43.6449C59.1854 43.6449 59.7287 44.1499 59.799 45ZM70.6367 44.1818H68.9492V41.8295H65.4208V44.1818H64.168V46.7386H65.4208V51.1747C65.3952 53.233 66.6673 54.2749 69.1026 54.1406C69.9016 54.0959 70.4961 53.9297 70.8157 53.8338L70.3043 51.3537C70.1701 51.3857 69.8249 51.456 69.614 51.456C69.1538 51.456 68.9492 51.2514 68.9492 50.8423V46.7386H70.6367V44.1818ZM74.8123 54.1534C76.0907 54.1534 77.0559 53.7188 77.6504 52.6193H77.7271V54H81.0254V47.2756C81.0254 45.4602 79.3059 44.054 76.4998 44.054C73.5659 44.054 72.1213 45.5881 71.9998 47.3778H75.247C75.3301 46.7706 75.7775 46.483 76.4487 46.483C77.0623 46.483 77.497 46.7642 77.497 47.2756V47.3011C77.497 47.87 76.8706 48.049 75.2214 48.1705C73.1951 48.3175 71.6163 49.1357 71.6163 51.2898C71.6163 53.2457 72.9331 54.1534 74.8123 54.1534ZM75.9629 51.929C75.362 51.929 74.9402 51.6349 74.9402 51.0852C74.9402 50.5803 75.2981 50.1903 76.1163 50.0625C76.6788 49.973 77.1518 49.858 77.5226 49.7045V50.5227C77.5226 51.4176 76.7619 51.929 75.9629 51.929ZM87.4414 54.179C90.3498 54.179 92.1332 52.5107 92.1715 49.9091H88.8988C88.8221 50.9382 88.266 51.4943 87.4925 51.4943C86.5657 51.4943 85.9585 50.7017 85.9585 49.0909C85.9585 47.4801 86.5657 46.6875 87.4925 46.6875C88.2724 46.6875 88.8029 47.2436 88.8988 48.2727H92.1715C92.1523 45.7159 90.3306 44.054 87.4414 44.054C84.2454 44.054 82.3533 46.0994 82.3533 49.1165C82.3533 52.1335 84.2454 54.179 87.4414 54.179ZM93.6273 54H97.1557V51.2131L97.6863 50.5419L99.687 54H103.727L100.288 48.4837L103.624 44.1818H99.6614L97.2836 47.4801H97.1557V40.9091H93.6273V54ZM108.844 54.179C111.567 54.179 113.318 52.875 113.65 50.8295H110.429C110.224 51.3857 109.643 51.6989 108.92 51.6989C107.872 51.6989 107.258 51.0085 107.258 50.0625V49.9091H113.65V49.0909C113.65 45.9652 111.733 44.054 108.767 44.054C105.724 44.054 103.781 46.0739 103.781 49.1165C103.781 52.2933 105.699 54.179 108.844 54.179ZM107.258 47.9659C107.278 47.1158 107.981 46.5341 108.844 46.5341C109.719 46.5341 110.384 47.1222 110.403 47.9659H107.258ZM115.09 54H118.619V48.8864C118.619 47.7614 119.392 47.0199 120.434 47.0199C120.798 47.0199 121.386 47.0774 121.738 47.1989V44.1882C121.457 44.1051 121.15 44.054 120.843 44.054C119.795 44.054 118.977 44.6676 118.619 46.0483H118.516V44.1818H115.09V54Z" fill="#121212"/>
</svg>
