<svg width="67" height="36" viewBox="0 0 67 36" fill="none" xmlns="http://www.w3.org/2000/svg">
<path d="M0.880682 10H1.76136V6.74716H5.6392V10H6.51989V2.72727H5.6392V5.96591H1.76136V2.72727H0.880682V10ZM9.7745 10.1278C10.7262 10.1278 11.2234 9.61648 11.3938 9.26136H11.4364V10H12.2745V6.40625C12.2745 4.6733 10.9535 4.47443 10.2575 4.47443C9.43359 4.47443 8.49609 4.75852 8.06996 5.75284L8.86541 6.03693C9.05007 5.6392 9.48686 5.21307 10.2859 5.21307C11.0565 5.21307 11.4364 5.62145 11.4364 6.32102V6.34943C11.4364 6.75426 11.0245 6.71875 10.0302 6.84659C9.01811 6.97798 7.91371 7.2017 7.91371 8.4517C7.91371 9.51705 8.73757 10.1278 9.7745 10.1278ZM9.90234 9.375C9.23473 9.375 8.75178 9.0767 8.75178 8.49432C8.75178 7.85511 9.33416 7.65625 9.98757 7.57102C10.3427 7.52841 11.2944 7.42898 11.4364 7.25852V8.02557C11.4364 8.70739 10.8967 9.375 9.90234 9.375ZM13.9178 10H14.7275V9.16193H14.8269C15.0115 9.46023 15.3667 10.1136 16.4178 10.1136C17.7814 10.1136 18.7331 9.01989 18.7331 7.28693C18.7331 5.56818 17.7814 4.47443 16.4036 4.47443C15.3382 4.47443 15.0115 5.12784 14.8269 5.41193H14.7559V2.72727H13.9178V10ZM14.7417 7.27273C14.7417 6.05114 15.2814 5.22727 16.3042 5.22727C17.3695 5.22727 17.8951 6.12216 17.8951 7.27273C17.8951 8.4375 17.3553 9.3608 16.3042 9.3608C15.2956 9.3608 14.7417 8.50852 14.7417 7.27273ZM20.0151 10H20.8532V4.54545H20.0151V10ZM20.4412 3.63636C20.7679 3.63636 21.0378 3.38068 21.0378 3.06818C21.0378 2.75568 20.7679 2.5 20.4412 2.5C20.1145 2.5 19.8446 2.75568 19.8446 3.06818C19.8446 3.38068 20.1145 3.63636 20.4412 3.63636ZM24.7603 4.54545H23.5955V3.23864H22.7575V4.54545H21.9336V5.25568H22.7575V8.66477C22.7575 9.61648 23.5245 10.071 24.2347 10.071C24.5472 10.071 24.7461 10.0142 24.8597 9.97159L24.6893 9.21875C24.6183 9.23295 24.5046 9.26136 24.32 9.26136C23.9506 9.26136 23.5955 9.14773 23.5955 8.4375V5.25568H24.7603V4.54545Z" fill="#121212"/>
<path d="M31.4439 5H33.3331C33.326 3.57244 32.2251 2.62784 30.4638 2.62784C28.7344 2.62784 27.5128 3.55824 27.5234 4.94318C27.5199 6.07955 28.3082 6.71165 29.5973 6.98864L30.3217 7.14489C31.1314 7.32244 31.4084 7.52486 31.4155 7.85511C31.4084 8.21378 31.0817 8.46591 30.4496 8.46591C29.6932 8.46591 29.2457 8.1108 29.2138 7.44318H27.3388C27.3459 9.26847 28.5817 10.0852 30.478 10.0852C32.321 10.0852 33.4254 9.28977 33.4325 7.85511C33.4254 6.74716 32.7649 5.96946 31.1598 5.625L30.5632 5.49716C29.8743 5.35156 29.5653 5.14915 29.5831 4.80114C29.5866 4.48153 29.853 4.24716 30.4638 4.24716C31.103 4.24716 31.4048 4.5277 31.4439 5ZM37.4648 4.54545H36.5273V3.23864H34.5671V4.54545H33.8711V5.96591H34.5671V8.4304C34.5529 9.57386 35.2596 10.1527 36.6126 10.0781C37.0565 10.0533 37.3867 9.96094 37.5643 9.90767L37.2802 8.52983C37.2056 8.54759 37.0138 8.58665 36.8967 8.58665C36.641 8.58665 36.5273 8.47301 36.5273 8.24574V5.96591H37.4648V4.54545ZM39.7846 10.0852C40.4949 10.0852 41.0311 9.84375 41.3613 9.23295H41.4039V10H43.2363V6.2642C43.2363 5.25568 42.2811 4.47443 40.7221 4.47443C39.0922 4.47443 38.2896 5.3267 38.2221 6.32102H40.0261C40.0723 5.98366 40.3208 5.82386 40.6937 5.82386C41.0346 5.82386 41.2761 5.98011 41.2761 6.2642V6.27841C41.2761 6.59446 40.9281 6.69389 40.0119 6.76136C38.8862 6.84304 38.0091 7.29759 38.0091 8.49432C38.0091 9.58097 38.7406 10.0852 39.7846 10.0852ZM40.4238 8.84943C40.09 8.84943 39.8556 8.68608 39.8556 8.38068C39.8556 8.10014 40.0545 7.88352 40.5091 7.8125C40.8216 7.76278 41.0843 7.69886 41.2903 7.61364V8.06818C41.2903 8.56534 40.8677 8.84943 40.4238 8.84943ZM46.8008 10.0994C48.4165 10.0994 49.4073 9.17259 49.4286 7.72727H47.6104C47.5678 8.29901 47.2589 8.60795 46.8292 8.60795C46.3143 8.60795 45.9769 8.16761 45.9769 7.27273C45.9769 6.37784 46.3143 5.9375 46.8292 5.9375C47.2624 5.9375 47.5572 6.24645 47.6104 6.81818H49.4286C49.418 5.39773 48.4059 4.47443 46.8008 4.47443C45.0252 4.47443 43.9741 5.6108 43.9741 7.28693C43.9741 8.96307 45.0252 10.0994 46.8008 10.0994ZM50.2374 10H52.1976V8.4517L52.4924 8.07884L53.6039 10H55.8482L53.9377 6.93537L55.7914 4.54545H53.5897L52.2686 6.37784H52.1976V2.72727H50.2374V10ZM58.6909 10.0994C60.2037 10.0994 61.1767 9.375 61.3613 8.23864H59.5716C59.4579 8.54759 59.1348 8.72159 58.7335 8.72159C58.1511 8.72159 57.8102 8.33807 57.8102 7.8125V7.72727H61.3613V7.27273C61.3613 5.53622 60.296 4.47443 58.6483 4.47443C56.9579 4.47443 55.8784 5.59659 55.8784 7.28693C55.8784 9.05185 56.9437 10.0994 58.6909 10.0994ZM57.8102 6.64773C57.8208 6.17543 58.2115 5.85227 58.6909 5.85227C59.1774 5.85227 59.5467 6.17898 59.5574 6.64773H57.8102ZM62.1612 10H64.1214V7.15909C64.1214 6.53409 64.5511 6.12216 65.13 6.12216C65.3324 6.12216 65.6591 6.15412 65.8544 6.22159V4.54901C65.6982 4.50284 65.5277 4.47443 65.3572 4.47443C64.7749 4.47443 64.3203 4.81534 64.1214 5.58239H64.0646V4.54545H62.1612V10Z" fill="#121212"/>
<path d="M0.632102 22H2.16974V18.9957H5.29119V22H6.82528V14.7273H5.29119V17.728H2.16974V14.7273H0.632102V22ZM9.62003 22.103C10.4261 22.103 10.9482 21.7514 11.2145 21.2436H11.2571V22H12.6918V18.321C12.6918 17.0213 11.5909 16.4744 10.3764 16.4744C9.0696 16.4744 8.21023 17.0994 8.00071 18.0938L9.39986 18.2074C9.50284 17.8452 9.82599 17.5788 10.3693 17.5788C10.8842 17.5788 11.179 17.8381 11.179 18.2855V18.3068C11.179 18.6584 10.8061 18.7045 9.85795 18.7969C8.77841 18.8963 7.80895 19.2585 7.80895 20.4766C7.80895 21.5561 8.57955 22.103 9.62003 22.103ZM10.0533 21.0589C9.58807 21.0589 9.25426 20.8423 9.25426 20.4268C9.25426 20.0007 9.60582 19.7912 10.1385 19.7166C10.4688 19.6705 11.0085 19.5923 11.1896 19.4716V20.0504C11.1896 20.6222 10.7173 21.0589 10.0533 21.0589ZM13.8938 22H15.3853V21.1264H15.4528C15.6623 21.581 16.1204 22.0888 17.0011 22.0888C18.244 22.0888 19.2134 21.1051 19.2134 19.2798C19.2134 17.4048 18.2013 16.4744 17.0046 16.4744C16.092 16.4744 15.6552 17.0178 15.4528 17.4616H15.4066V14.7273H13.8938V22ZM15.3746 19.2727C15.3746 18.2997 15.7866 17.6783 16.5217 17.6783C17.271 17.6783 17.6687 18.3281 17.6687 19.2727C17.6687 20.2244 17.2638 20.8849 16.5217 20.8849C15.7937 20.8849 15.3746 20.2457 15.3746 19.2727ZM20.2228 22H21.7356V16.5455H20.2228V22ZM20.9828 15.8423C21.4338 15.8423 21.8031 15.4979 21.8031 15.0753C21.8031 14.6562 21.4338 14.3118 20.9828 14.3118C20.5353 14.3118 20.166 14.6562 20.166 15.0753C20.166 15.4979 20.5353 15.8423 20.9828 15.8423ZM25.8487 16.5455H24.8224V15.2386H23.3097V16.5455H22.5639V17.6818H23.3097V20.5227C23.3026 21.5916 24.0305 22.1207 25.1278 22.0746C25.5185 22.0604 25.7955 21.9822 25.9482 21.9325L25.7102 20.8068C25.6357 20.821 25.4759 20.8565 25.3338 20.8565C25.032 20.8565 24.8224 20.7429 24.8224 20.3239V17.6818H25.8487V16.5455Z" fill="#121212"/>
<path d="M32.3892 17H34.2784C34.2713 15.5724 33.1705 14.6278 31.4091 14.6278C29.6797 14.6278 28.4581 15.5582 28.4688 16.9432C28.4652 18.0795 29.2536 18.7116 30.5426 18.9886L31.267 19.1449C32.0767 19.3224 32.3537 19.5249 32.3608 19.8551C32.3537 20.2138 32.027 20.4659 31.3949 20.4659C30.6385 20.4659 30.1911 20.1108 30.1591 19.4432H28.2841C28.2912 21.2685 29.527 22.0852 31.4233 22.0852C33.2663 22.0852 34.3707 21.2898 34.3778 19.8551C34.3707 18.7472 33.7102 17.9695 32.1051 17.625L31.5085 17.4972C30.8196 17.3516 30.5107 17.1491 30.5284 16.8011C30.532 16.4815 30.7983 16.2472 31.4091 16.2472C32.0483 16.2472 32.3501 16.5277 32.3892 17ZM38.4102 16.5455H37.4727V15.2386H35.5124V16.5455H34.8164V17.9659H35.5124V20.4304C35.4982 21.5739 36.2049 22.1527 37.5579 22.0781C38.0018 22.0533 38.332 21.9609 38.5096 21.9077L38.2255 20.5298C38.1509 20.5476 37.9592 20.5866 37.842 20.5866C37.5863 20.5866 37.4727 20.473 37.4727 20.2457V17.9659H38.4102V16.5455ZM40.7299 22.0852C41.4402 22.0852 41.9764 21.8438 42.3066 21.233H42.3493V22H44.1816V18.2642C44.1816 17.2557 43.2264 16.4744 41.6674 16.4744C40.0375 16.4744 39.2349 17.3267 39.1674 18.321H40.9714C41.0176 17.9837 41.2662 17.8239 41.639 17.8239C41.9799 17.8239 42.2214 17.9801 42.2214 18.2642V18.2784C42.2214 18.5945 41.8734 18.6939 40.9572 18.7614C39.8315 18.843 38.9544 19.2976 38.9544 20.4943C38.9544 21.581 39.6859 22.0852 40.7299 22.0852ZM41.3691 20.8494C41.0353 20.8494 40.801 20.6861 40.801 20.3807C40.801 20.1001 40.9998 19.8835 41.4544 19.8125C41.7669 19.7628 42.0297 19.6989 42.2356 19.6136V20.0682C42.2356 20.5653 41.813 20.8494 41.3691 20.8494ZM47.7461 22.0994C49.3619 22.0994 50.3526 21.1726 50.3739 19.7273H48.5558C48.5131 20.299 48.2042 20.608 47.7745 20.608C47.2596 20.608 46.9222 20.1676 46.9222 19.2727C46.9222 18.3778 47.2596 17.9375 47.7745 17.9375C48.2077 17.9375 48.5025 18.2464 48.5558 18.8182H50.3739C50.3633 17.3977 49.3512 16.4744 47.7461 16.4744C45.9705 16.4744 44.9194 17.6108 44.9194 19.2869C44.9194 20.9631 45.9705 22.0994 47.7461 22.0994ZM51.1827 22H53.1429V20.4517L53.4377 20.0788L54.5492 22H56.7935L54.883 18.9354L56.7367 16.5455H54.535L53.214 18.3778H53.1429V14.7273H51.1827V22ZM59.6362 22.0994C61.149 22.0994 62.122 21.375 62.3066 20.2386H60.5169C60.4032 20.5476 60.0801 20.7216 59.6788 20.7216C59.0964 20.7216 58.7555 20.3381 58.7555 19.8125V19.7273H62.3066V19.2727C62.3066 17.5362 61.2413 16.4744 59.5936 16.4744C57.9032 16.4744 56.8237 17.5966 56.8237 19.2869C56.8237 21.0518 57.889 22.0994 59.6362 22.0994ZM58.7555 18.6477C58.7662 18.1754 59.1568 17.8523 59.6362 17.8523C60.1227 17.8523 60.492 18.179 60.5027 18.6477H58.7555ZM63.1065 22H65.0668V19.1591C65.0668 18.5341 65.4964 18.1222 66.0753 18.1222C66.2777 18.1222 66.6044 18.1541 66.7997 18.2216V16.549C66.6435 16.5028 66.473 16.4744 66.3026 16.4744C65.7202 16.4744 65.2656 16.8153 65.0668 17.5824H65.0099V16.5455H63.1065V22Z" fill="#121212"/>
<path d="M0.46875 34H2.44318V31.1591H5.05682V34H7.03125V26.7273H5.05682V29.5682H2.44318V26.7273H0.46875V34ZM9.51705 34.0852C10.2273 34.0852 10.7635 33.8438 11.0938 33.233H11.1364V34H12.9688V30.2642C12.9688 29.2557 12.0135 28.4744 10.4545 28.4744C8.82457 28.4744 8.02202 29.3267 7.95455 30.321H9.75852C9.80469 29.9837 10.0533 29.8239 10.4261 29.8239C10.767 29.8239 11.0085 29.9801 11.0085 30.2642V30.2784C11.0085 30.5945 10.6605 30.6939 9.74432 30.7614C8.61861 30.843 7.74148 31.2976 7.74148 32.4943C7.74148 33.581 8.47301 34.0852 9.51705 34.0852ZM10.1562 32.8494C9.82244 32.8494 9.58807 32.6861 9.58807 32.3807C9.58807 32.1001 9.78693 31.8835 10.2415 31.8125C10.554 31.7628 10.8168 31.6989 11.0227 31.6136V32.0682C11.0227 32.5653 10.6001 32.8494 10.1562 32.8494ZM13.877 34H15.823V33.1051H15.8656C16.0929 33.6591 16.6184 34.071 17.3855 34.071C18.5502 34.071 19.5304 33.1619 19.5304 31.2727C19.5304 29.2983 18.4792 28.4744 17.3997 28.4744C16.59 28.4744 16.0787 28.9432 15.8656 29.4972H15.8372V26.7273H13.877V34ZM15.7946 31.2727C15.7946 30.4631 16.1213 29.9801 16.661 29.9801C17.2008 29.9801 17.5133 30.4631 17.5133 31.2727C17.5133 32.0824 17.2008 32.5653 16.661 32.5653C16.1213 32.5653 15.7946 32.0682 15.7946 31.2727ZM20.3507 34H22.3109V28.5455H20.3507V34ZM21.3308 27.9773C21.8635 27.9773 22.2967 27.576 22.2967 27.0824C22.2967 26.5888 21.8635 26.1875 21.3308 26.1875C20.7981 26.1875 20.3649 26.5888 20.3649 27.0824C20.3649 27.576 20.7981 27.9773 21.3308 27.9773ZM26.5625 28.5455H25.625V27.2386H23.6648V28.5455H22.9688V29.9659H23.6648V32.4304C23.6506 33.5739 24.3572 34.1527 25.7102 34.0781C26.1541 34.0533 26.4844 33.9609 26.6619 33.9077L26.3778 32.5298C26.3033 32.5476 26.1115 32.5866 25.9943 32.5866C25.7386 32.5866 25.625 32.473 25.625 32.2457V29.9659H26.5625V28.5455Z" fill="#121212"/>
<path d="M32.4439 29H34.3331C34.326 27.5724 33.2251 26.6278 31.4638 26.6278C29.7344 26.6278 28.5128 27.5582 28.5234 28.9432C28.5199 30.0795 29.3082 30.7116 30.5973 30.9886L31.3217 31.1449C32.1314 31.3224 32.4084 31.5249 32.4155 31.8551C32.4084 32.2138 32.0817 32.4659 31.4496 32.4659C30.6932 32.4659 30.2457 32.1108 30.2138 31.4432H28.3388C28.3459 33.2685 29.5817 34.0852 31.478 34.0852C33.321 34.0852 34.4254 33.2898 34.4325 31.8551C34.4254 30.7472 33.7649 29.9695 32.1598 29.625L31.5632 29.4972C30.8743 29.3516 30.5653 29.1491 30.5831 28.8011C30.5866 28.4815 30.853 28.2472 31.4638 28.2472C32.103 28.2472 32.4048 28.5277 32.4439 29ZM38.4648 28.5455H37.5273V27.2386H35.5671V28.5455H34.8711V29.9659H35.5671V32.4304C35.5529 33.5739 36.2596 34.1527 37.6126 34.0781C38.0565 34.0533 38.3867 33.9609 38.5643 33.9077L38.2802 32.5298C38.2056 32.5476 38.0138 32.5866 37.8967 32.5866C37.641 32.5866 37.5273 32.473 37.5273 32.2457V29.9659H38.4648V28.5455ZM40.7846 34.0852C41.4949 34.0852 42.0311 33.8438 42.3613 33.233H42.4039V34H44.2363V30.2642C44.2363 29.2557 43.2811 28.4744 41.7221 28.4744C40.0922 28.4744 39.2896 29.3267 39.2221 30.321H41.0261C41.0723 29.9837 41.3208 29.8239 41.6937 29.8239C42.0346 29.8239 42.2761 29.9801 42.2761 30.2642V30.2784C42.2761 30.5945 41.9281 30.6939 41.0119 30.7614C39.8862 30.843 39.0091 31.2976 39.0091 32.4943C39.0091 33.581 39.7406 34.0852 40.7846 34.0852ZM41.4238 32.8494C41.09 32.8494 40.8556 32.6861 40.8556 32.3807C40.8556 32.1001 41.0545 31.8835 41.5091 31.8125C41.8216 31.7628 42.0843 31.6989 42.2903 31.6136V32.0682C42.2903 32.5653 41.8677 32.8494 41.4238 32.8494ZM47.8008 34.0994C49.4165 34.0994 50.4073 33.1726 50.4286 31.7273H48.6104C48.5678 32.299 48.2589 32.608 47.8292 32.608C47.3143 32.608 46.9769 32.1676 46.9769 31.2727C46.9769 30.3778 47.3143 29.9375 47.8292 29.9375C48.2624 29.9375 48.5572 30.2464 48.6104 30.8182H50.4286C50.418 29.3977 49.4059 28.4744 47.8008 28.4744C46.0252 28.4744 44.9741 29.6108 44.9741 31.2869C44.9741 32.9631 46.0252 34.0994 47.8008 34.0994ZM51.2374 34H53.1976V32.4517L53.4924 32.0788L54.6039 34H56.8482L54.9377 30.9354L56.7914 28.5455H54.5897L53.2686 30.3778H53.1976V26.7273H51.2374V34ZM59.6909 34.0994C61.2037 34.0994 62.1767 33.375 62.3613 32.2386H60.5716C60.4579 32.5476 60.1348 32.7216 59.7335 32.7216C59.1511 32.7216 58.8102 32.3381 58.8102 31.8125V31.7273H62.3613V31.2727C62.3613 29.5362 61.296 28.4744 59.6483 28.4744C57.9579 28.4744 56.8784 29.5966 56.8784 31.2869C56.8784 33.0518 57.9437 34.0994 59.6909 34.0994ZM58.8102 30.6477C58.8208 30.1754 59.2115 29.8523 59.6909 29.8523C60.1774 29.8523 60.5467 30.179 60.5574 30.6477H58.8102ZM63.1612 34H65.1214V31.1591C65.1214 30.5341 65.5511 30.1222 66.13 30.1222C66.3324 30.1222 66.6591 30.1541 66.8544 30.2216V28.549C66.6982 28.5028 66.5277 28.4744 66.3572 28.4744C65.7749 28.4744 65.3203 28.8153 65.1214 29.5824H65.0646V28.5455H63.1612V34Z" fill="#121212"/>
</svg>
