<svg width="108" height="55" viewBox="0 0 108 55" fill="none" xmlns="http://www.w3.org/2000/svg">
<path d="M1.01136 33H3.47159V28.1932H8.46591V33H10.9205V21.3636H8.46591V26.1648H3.47159V21.3636H1.01136V33ZM15.392 33.1648C16.6818 33.1648 17.517 32.6023 17.9432 31.7898H18.0114V33H20.3068V27.1136C20.3068 25.0341 18.5455 24.1591 16.6023 24.1591C14.5114 24.1591 13.1364 25.1591 12.8011 26.75L15.0398 26.9318C15.2045 26.3523 15.7216 25.9261 16.5909 25.9261C17.4148 25.9261 17.8864 26.3409 17.8864 27.0568V27.0909C17.8864 27.6534 17.2898 27.7273 15.7727 27.875C14.0455 28.0341 12.4943 28.6136 12.4943 30.5625C12.4943 32.2898 13.7273 33.1648 15.392 33.1648ZM16.0852 31.4943C15.3409 31.4943 14.8068 31.1477 14.8068 30.483C14.8068 29.8011 15.3693 29.4659 16.2216 29.3466C16.75 29.2727 17.6136 29.1477 17.9034 28.9545V29.8807C17.9034 30.7955 17.1477 31.4943 16.0852 31.4943ZM22.2301 33H24.6165V31.6023H24.7244C25.0597 32.3295 25.7926 33.142 27.2017 33.142C29.1903 33.142 30.7415 31.5682 30.7415 28.6477C30.7415 25.6477 29.1222 24.1591 27.2074 24.1591C25.7472 24.1591 25.0483 25.0284 24.7244 25.7386H24.6506V21.3636H22.2301V33ZM24.5994 28.6364C24.5994 27.0795 25.2585 26.0852 26.4347 26.0852C27.6335 26.0852 28.2699 27.125 28.2699 28.6364C28.2699 30.1591 27.6222 31.2159 26.4347 31.2159C25.2699 31.2159 24.5994 30.1932 24.5994 28.6364ZM32.3565 33H34.777V24.2727H32.3565V33ZM33.5724 23.1477C34.294 23.1477 34.8849 22.5966 34.8849 21.9205C34.8849 21.25 34.294 20.6989 33.5724 20.6989C32.8565 20.6989 32.2656 21.25 32.2656 21.9205C32.2656 22.5966 32.8565 23.1477 33.5724 23.1477ZM41.358 24.2727H39.7159V22.1818H37.2955V24.2727H36.1023V26.0909H37.2955V30.6364C37.2841 32.3466 38.4489 33.1932 40.2045 33.1193C40.8295 33.0966 41.2727 32.9716 41.517 32.892L41.1364 31.0909C41.017 31.1136 40.7614 31.1705 40.5341 31.1705C40.0511 31.1705 39.7159 30.9886 39.7159 30.3182V26.0909H41.358V24.2727Z" fill="#121212"/>
<path d="M1.40909 15H2.81818V9.79545H9.02273V15H10.4318V3.36364H9.02273V8.54545H2.81818V3.36364H1.40909V15ZM15.6392 15.2045C17.1619 15.2045 17.9574 14.3864 18.2301 13.8182H18.2983V15H19.6392V9.25C19.6392 6.47727 17.5256 6.15909 16.4119 6.15909C15.0938 6.15909 13.5938 6.61364 12.9119 8.20455L14.1847 8.65909C14.4801 8.02273 15.179 7.34091 16.4574 7.34091C17.6903 7.34091 18.2983 7.99432 18.2983 9.11364V9.15909C18.2983 9.80682 17.6392 9.75 16.0483 9.95455C14.429 10.1648 12.6619 10.5227 12.6619 12.5227C12.6619 14.2273 13.9801 15.2045 15.6392 15.2045ZM15.8438 14C14.7756 14 14.0028 13.5227 14.0028 12.5909C14.0028 11.5682 14.9347 11.25 15.9801 11.1136C16.5483 11.0455 18.071 10.8864 18.2983 10.6136V11.8409C18.2983 12.9318 17.4347 14 15.8438 14ZM22.2685 15H23.5639V13.6591H23.723C24.0185 14.1364 24.5866 15.1818 26.2685 15.1818C28.4503 15.1818 29.973 13.4318 29.973 10.6591C29.973 7.90909 28.4503 6.15909 26.2457 6.15909C24.5412 6.15909 24.0185 7.20455 23.723 7.65909H23.6094V3.36364H22.2685V15ZM23.5866 10.6364C23.5866 8.68182 24.4503 7.36364 26.0866 7.36364C27.7912 7.36364 28.6321 8.79545 28.6321 10.6364C28.6321 12.5 27.7685 13.9773 26.0866 13.9773C24.473 13.9773 23.5866 12.6136 23.5866 10.6364ZM32.0241 15H33.3651V6.27273H32.0241V15ZM32.706 4.81818C33.2287 4.81818 33.6605 4.40909 33.6605 3.90909C33.6605 3.40909 33.2287 3 32.706 3C32.1832 3 31.7514 3.40909 31.7514 3.90909C31.7514 4.40909 32.1832 4.81818 32.706 4.81818ZM39.6165 6.27273H37.7528V4.18182H36.4119V6.27273H35.0938V7.40909H36.4119V12.8636C36.4119 14.3864 37.6392 15.1136 38.7756 15.1136C39.2756 15.1136 39.5938 15.0227 39.7756 14.9545L39.5028 13.75C39.3892 13.7727 39.2074 13.8182 38.9119 13.8182C38.321 13.8182 37.7528 13.6364 37.7528 12.5V7.40909H39.6165V6.27273Z" fill="#121212"/>
<path d="M0.75 51H3.90909V46.4545H8.09091V51H11.25V39.3636H8.09091V43.9091H3.90909V39.3636H0.75V51ZM15.2273 51.1364C16.3636 51.1364 17.2216 50.75 17.75 49.7727H17.8182V51H20.75V45.0227C20.75 43.4091 19.2216 42.1591 16.7273 42.1591C14.1193 42.1591 12.8352 43.5227 12.7273 45.1136H15.6136C15.6875 44.5739 16.0852 44.3182 16.6818 44.3182C17.2273 44.3182 17.6136 44.5682 17.6136 45.0227V45.0455C17.6136 45.5511 17.0568 45.7102 15.5909 45.8182C13.7898 45.9489 12.3864 46.6761 12.3864 48.5909C12.3864 50.3295 13.5568 51.1364 15.2273 51.1364ZM16.25 49.1591C15.7159 49.1591 15.3409 48.8977 15.3409 48.4091C15.3409 47.9602 15.6591 47.6136 16.3864 47.5C16.8864 47.4205 17.3068 47.3182 17.6364 47.1818V47.9091C17.6364 48.7045 16.9602 49.1591 16.25 49.1591ZM22.2031 51H25.3168V49.5682H25.3849C25.7486 50.4545 26.5895 51.1136 27.8168 51.1136C29.6804 51.1136 31.2486 49.6591 31.2486 46.6364C31.2486 43.4773 29.5668 42.1591 27.8395 42.1591C26.544 42.1591 25.7259 42.9091 25.3849 43.7955H25.3395V39.3636H22.2031V51ZM25.2713 46.6364C25.2713 45.3409 25.794 44.5682 26.6577 44.5682C27.5213 44.5682 28.0213 45.3409 28.0213 46.6364C28.0213 47.9318 27.5213 48.7045 26.6577 48.7045C25.794 48.7045 25.2713 47.9091 25.2713 46.6364ZM32.5611 51H35.6974V42.2727H32.5611V51ZM34.1293 41.3636C34.9815 41.3636 35.6747 40.7216 35.6747 39.9318C35.6747 39.142 34.9815 38.5 34.1293 38.5C33.277 38.5 32.5838 39.142 32.5838 39.9318C32.5838 40.7216 33.277 41.3636 34.1293 41.3636ZM42.5 42.2727H41V40.1818H37.8636V42.2727H36.75V44.5455H37.8636V48.4886C37.8409 50.3182 38.9716 51.2443 41.1364 51.125C41.8466 51.0852 42.375 50.9375 42.6591 50.8523L42.2045 48.6477C42.0852 48.6761 41.7784 48.7386 41.5909 48.7386C41.1818 48.7386 41 48.5568 41 48.1932V44.5455H42.5V42.2727Z" fill="#121212"/>
<path d="M50.7102 7H53.733C53.7216 4.71591 51.9602 3.20455 49.142 3.20455C46.375 3.20455 44.4205 4.69318 44.4375 6.90909C44.4318 8.72727 45.6932 9.73864 47.7557 10.1818L48.9148 10.4318C50.2102 10.7159 50.6534 11.0398 50.6648 11.5682C50.6534 12.142 50.1307 12.5455 49.1193 12.5455C47.9091 12.5455 47.1932 11.9773 47.142 10.9091H44.142C44.1534 13.8295 46.1307 15.1364 49.1648 15.1364C52.1136 15.1364 53.8807 13.8636 53.892 11.5682C53.8807 9.79545 52.8239 8.55114 50.2557 8L49.3011 7.79545C48.1989 7.5625 47.7045 7.23864 47.733 6.68182C47.7386 6.17045 48.1648 5.79545 49.142 5.79545C50.1648 5.79545 50.6477 6.24432 50.7102 7ZM60.3438 6.27273H58.8438V4.18182H55.7074V6.27273H54.5938V8.54545H55.7074V12.4886C55.6847 14.3182 56.8153 15.2443 58.9801 15.125C59.6903 15.0852 60.2188 14.9375 60.5028 14.8523L60.0483 12.6477C59.929 12.6761 59.6222 12.7386 59.4347 12.7386C59.0256 12.7386 58.8438 12.5568 58.8438 12.1932V8.54545H60.3438V6.27273ZM64.0554 15.1364C65.1918 15.1364 66.0497 14.75 66.5781 13.7727H66.6463V15H69.5781V9.02273C69.5781 7.40909 68.0497 6.15909 65.5554 6.15909C62.9474 6.15909 61.6634 7.52273 61.5554 9.11364H64.4418C64.5156 8.57386 64.9134 8.31818 65.5099 8.31818C66.0554 8.31818 66.4418 8.56818 66.4418 9.02273V9.04545C66.4418 9.55114 65.8849 9.71023 64.419 9.81818C62.6179 9.94886 61.2145 10.6761 61.2145 12.5909C61.2145 14.3295 62.3849 15.1364 64.0554 15.1364ZM65.0781 13.1591C64.544 13.1591 64.169 12.8977 64.169 12.4091C64.169 11.9602 64.4872 11.6136 65.2145 11.5C65.7145 11.4205 66.1349 11.3182 66.4645 11.1818V11.9091C66.4645 12.7045 65.7884 13.1591 65.0781 13.1591ZM75.2812 15.1591C77.8665 15.1591 79.4517 13.6761 79.4858 11.3636H76.5767C76.5085 12.2784 76.0142 12.7727 75.3267 12.7727C74.5028 12.7727 73.9631 12.0682 73.9631 10.6364C73.9631 9.20455 74.5028 8.5 75.3267 8.5C76.0199 8.5 76.4915 8.99432 76.5767 9.90909H79.4858C79.4688 7.63636 77.8494 6.15909 75.2812 6.15909C72.4403 6.15909 70.7585 7.97727 70.7585 10.6591C70.7585 13.3409 72.4403 15.1591 75.2812 15.1591ZM80.7798 15H83.9162V12.5227L84.3878 11.9261L86.1662 15H89.7571L86.7003 10.0966L89.6662 6.27273H86.1435L84.0298 9.20455H83.9162V3.36364H80.7798V15ZM94.3054 15.1591C96.7259 15.1591 98.2827 14 98.5781 12.1818H95.7145C95.5327 12.6761 95.0156 12.9545 94.3736 12.9545C93.4418 12.9545 92.8963 12.3409 92.8963 11.5V11.3636H98.5781V10.6364C98.5781 7.85795 96.8736 6.15909 94.2372 6.15909C91.5327 6.15909 89.8054 7.95455 89.8054 10.6591C89.8054 13.483 91.5099 15.1591 94.3054 15.1591ZM92.8963 9.63636C92.9134 8.88068 93.5384 8.36364 94.3054 8.36364C95.0838 8.36364 95.6747 8.88636 95.6918 9.63636H92.8963ZM99.858 15H102.994V10.4545C102.994 9.45455 103.682 8.79545 104.608 8.79545C104.932 8.79545 105.455 8.84659 105.767 8.95455V6.27841C105.517 6.20455 105.244 6.15909 104.972 6.15909C104.04 6.15909 103.312 6.70455 102.994 7.93182H102.903V6.27273H99.858V15Z" fill="#121212"/>
<path d="M51.0227 25H54.0455C54.0341 22.7159 52.2727 21.2045 49.4545 21.2045C46.6875 21.2045 44.733 22.6932 44.75 24.9091C44.7443 26.7273 46.0057 27.7386 48.0682 28.1818L49.2273 28.4318C50.5227 28.7159 50.9659 29.0398 50.9773 29.5682C50.9659 30.142 50.4432 30.5455 49.4318 30.5455C48.2216 30.5455 47.5057 29.9773 47.4545 28.9091H44.4545C44.4659 31.8295 46.4432 33.1364 49.4773 33.1364C52.4261 33.1364 54.1932 31.8636 54.2045 29.5682C54.1932 27.7955 53.1364 26.5511 50.5682 26L49.6136 25.7955C48.5114 25.5625 48.017 25.2386 48.0455 24.6818C48.0511 24.1705 48.4773 23.7955 49.4545 23.7955C50.4773 23.7955 50.9602 24.2443 51.0227 25ZM60.6562 24.2727H59.1562V22.1818H56.0199V24.2727H54.9062V26.5455H56.0199V30.4886C55.9972 32.3182 57.1278 33.2443 59.2926 33.125C60.0028 33.0852 60.5312 32.9375 60.8153 32.8523L60.3608 30.6477C60.2415 30.6761 59.9347 30.7386 59.7472 30.7386C59.3381 30.7386 59.1562 30.5568 59.1562 30.1932V26.5455H60.6562V24.2727ZM64.3679 33.1364C65.5043 33.1364 66.3622 32.75 66.8906 31.7727H66.9588V33H69.8906V27.0227C69.8906 25.4091 68.3622 24.1591 65.8679 24.1591C63.2599 24.1591 61.9759 25.5227 61.8679 27.1136H64.7543C64.8281 26.5739 65.2259 26.3182 65.8224 26.3182C66.3679 26.3182 66.7543 26.5682 66.7543 27.0227V27.0455C66.7543 27.5511 66.1974 27.7102 64.7315 27.8182C62.9304 27.9489 61.527 28.6761 61.527 30.5909C61.527 32.3295 62.6974 33.1364 64.3679 33.1364ZM65.3906 31.1591C64.8565 31.1591 64.4815 30.8977 64.4815 30.4091C64.4815 29.9602 64.7997 29.6136 65.527 29.5C66.027 29.4205 66.4474 29.3182 66.777 29.1818V29.9091C66.777 30.7045 66.1009 31.1591 65.3906 31.1591ZM75.5938 33.1591C78.179 33.1591 79.7642 31.6761 79.7983 29.3636H76.8892C76.821 30.2784 76.3267 30.7727 75.6392 30.7727C74.8153 30.7727 74.2756 30.0682 74.2756 28.6364C74.2756 27.2045 74.8153 26.5 75.6392 26.5C76.3324 26.5 76.804 26.9943 76.8892 27.9091H79.7983C79.7812 25.6364 78.1619 24.1591 75.5938 24.1591C72.7528 24.1591 71.071 25.9773 71.071 28.6591C71.071 31.3409 72.7528 33.1591 75.5938 33.1591ZM81.0923 33H84.2287V30.5227L84.7003 29.9261L86.4787 33H90.0696L87.0128 28.0966L89.9787 24.2727H86.456L84.3423 27.2045H84.2287V21.3636H81.0923V33ZM94.6179 33.1591C97.0384 33.1591 98.5952 32 98.8906 30.1818H96.027C95.8452 30.6761 95.3281 30.9545 94.6861 30.9545C93.7543 30.9545 93.2088 30.3409 93.2088 29.5V29.3636H98.8906V28.6364C98.8906 25.858 97.1861 24.1591 94.5497 24.1591C91.8452 24.1591 90.1179 25.9545 90.1179 28.6591C90.1179 31.483 91.8224 33.1591 94.6179 33.1591ZM93.2088 27.6364C93.2259 26.8807 93.8509 26.3636 94.6179 26.3636C95.3963 26.3636 95.9872 26.8864 96.0043 27.6364H93.2088ZM100.17 33H103.307V28.4545C103.307 27.4545 103.994 26.7955 104.92 26.7955C105.244 26.7955 105.767 26.8466 106.08 26.9545V24.2784C105.83 24.2045 105.557 24.1591 105.284 24.1591C104.352 24.1591 103.625 24.7045 103.307 25.9318H103.216V24.2727H100.17V33Z" fill="#121212"/>
<path d="M52.7102 43H55.733C55.7216 40.7159 53.9602 39.2045 51.142 39.2045C48.375 39.2045 46.4205 40.6932 46.4375 42.9091C46.4318 44.7273 47.6932 45.7386 49.7557 46.1818L50.9148 46.4318C52.2102 46.7159 52.6534 47.0398 52.6648 47.5682C52.6534 48.142 52.1307 48.5455 51.1193 48.5455C49.9091 48.5455 49.1932 47.9773 49.142 46.9091H46.142C46.1534 49.8295 48.1307 51.1364 51.1648 51.1364C54.1136 51.1364 55.8807 49.8636 55.892 47.5682C55.8807 45.7955 54.8239 44.5511 52.2557 44L51.3011 43.7955C50.1989 43.5625 49.7045 43.2386 49.733 42.6818C49.7386 42.1705 50.1648 41.7955 51.142 41.7955C52.1648 41.7955 52.6477 42.2443 52.7102 43ZM62.3438 42.2727H60.8438V40.1818H57.7074V42.2727H56.5938V44.5455H57.7074V48.4886C57.6847 50.3182 58.8153 51.2443 60.9801 51.125C61.6903 51.0852 62.2188 50.9375 62.5028 50.8523L62.0483 48.6477C61.929 48.6761 61.6222 48.7386 61.4347 48.7386C61.0256 48.7386 60.8438 48.5568 60.8438 48.1932V44.5455H62.3438V42.2727ZM66.0554 51.1364C67.1918 51.1364 68.0497 50.75 68.5781 49.7727H68.6463V51H71.5781V45.0227C71.5781 43.4091 70.0497 42.1591 67.5554 42.1591C64.9474 42.1591 63.6634 43.5227 63.5554 45.1136H66.4418C66.5156 44.5739 66.9134 44.3182 67.5099 44.3182C68.0554 44.3182 68.4418 44.5682 68.4418 45.0227V45.0455C68.4418 45.5511 67.8849 45.7102 66.419 45.8182C64.6179 45.9489 63.2145 46.6761 63.2145 48.5909C63.2145 50.3295 64.3849 51.1364 66.0554 51.1364ZM67.0781 49.1591C66.544 49.1591 66.169 48.8977 66.169 48.4091C66.169 47.9602 66.4872 47.6136 67.2145 47.5C67.7145 47.4205 68.1349 47.3182 68.4645 47.1818V47.9091C68.4645 48.7045 67.7884 49.1591 67.0781 49.1591ZM77.2812 51.1591C79.8665 51.1591 81.4517 49.6761 81.4858 47.3636H78.5767C78.5085 48.2784 78.0142 48.7727 77.3267 48.7727C76.5028 48.7727 75.9631 48.0682 75.9631 46.6364C75.9631 45.2045 76.5028 44.5 77.3267 44.5C78.0199 44.5 78.4915 44.9943 78.5767 45.9091H81.4858C81.4688 43.6364 79.8494 42.1591 77.2812 42.1591C74.4403 42.1591 72.7585 43.9773 72.7585 46.6591C72.7585 49.3409 74.4403 51.1591 77.2812 51.1591ZM82.7798 51H85.9162V48.5227L86.3878 47.9261L88.1662 51H91.7571L88.7003 46.0966L91.6662 42.2727H88.1435L86.0298 45.2045H85.9162V39.3636H82.7798V51ZM96.3054 51.1591C98.7259 51.1591 100.283 50 100.578 48.1818H97.7145C97.5327 48.6761 97.0156 48.9545 96.3736 48.9545C95.4418 48.9545 94.8963 48.3409 94.8963 47.5V47.3636H100.578V46.6364C100.578 43.858 98.8736 42.1591 96.2372 42.1591C93.5327 42.1591 91.8054 43.9545 91.8054 46.6591C91.8054 49.483 93.5099 51.1591 96.3054 51.1591ZM94.8963 45.6364C94.9134 44.8807 95.5384 44.3636 96.3054 44.3636C97.0838 44.3636 97.6747 44.8864 97.6918 45.6364H94.8963ZM101.858 51H104.994V46.4545C104.994 45.4545 105.682 44.7955 106.608 44.7955C106.932 44.7955 107.455 44.8466 107.767 44.9545V42.2784C107.517 42.2045 107.244 42.1591 106.972 42.1591C106.04 42.1591 105.312 42.7045 104.994 43.9318H104.903V42.2727H101.858V51Z" fill="#121212"/>
</svg>
