<svg width="95" height="51" viewBox="0 0 95 51" fill="none" xmlns="http://www.w3.org/2000/svg">
<path d="M1.23295 14H2.46591V9.44602H7.89489V14H9.12784V3.81818H7.89489V8.35227H2.46591V3.81818H1.23295V14ZM13.6843 14.179C15.0167 14.179 15.7127 13.4631 15.9513 12.9659H16.011V14H17.1843V8.96875C17.1843 6.54261 15.3349 6.2642 14.3604 6.2642C13.207 6.2642 11.8945 6.66193 11.2979 8.05398L12.4116 8.4517C12.6701 7.89489 13.2816 7.2983 14.4002 7.2983C15.479 7.2983 16.011 7.87003 16.011 8.84943V8.8892C16.011 9.45597 15.4343 9.40625 14.0423 9.58523C12.6254 9.76918 11.0792 10.0824 11.0792 11.8324C11.0792 13.3239 12.2326 14.179 13.6843 14.179ZM13.8633 13.125C12.9286 13.125 12.2525 12.7074 12.2525 11.892C12.2525 10.9972 13.0678 10.7188 13.9826 10.5994C14.4798 10.5398 15.8121 10.4006 16.011 10.1619V11.2358C16.011 12.1903 15.2553 13.125 13.8633 13.125ZM19.4849 14H20.6184V12.8267H20.7576C21.0162 13.2443 21.5133 14.1591 22.9849 14.1591C24.894 14.1591 26.2264 12.6278 26.2264 10.2017C26.2264 7.79545 24.894 6.2642 22.965 6.2642C21.4735 6.2642 21.0162 7.17898 20.7576 7.5767H20.6582V3.81818H19.4849V14ZM20.6383 10.1818C20.6383 8.47159 21.394 7.31818 22.8258 7.31818C24.3173 7.31818 25.0531 8.57102 25.0531 10.1818C25.0531 11.8125 24.2974 13.1051 22.8258 13.1051C21.4139 13.1051 20.6383 11.9119 20.6383 10.1818ZM28.0211 14H29.1944V6.36364H28.0211V14ZM28.6177 5.09091C29.0751 5.09091 29.4529 4.73295 29.4529 4.29545C29.4529 3.85795 29.0751 3.5 28.6177 3.5C28.1603 3.5 27.7825 3.85795 27.7825 4.29545C27.7825 4.73295 28.1603 5.09091 28.6177 5.09091ZM34.6644 6.36364H33.0337V4.53409H31.8604V6.36364H30.707V7.35795H31.8604V12.1307C31.8604 13.4631 32.9343 14.0994 33.9286 14.0994C34.3661 14.0994 34.6445 14.0199 34.8036 13.9602L34.565 12.9062C34.4656 12.9261 34.3065 12.9659 34.0479 12.9659C33.5309 12.9659 33.0337 12.8068 33.0337 11.8125V7.35795H34.6644V6.36364Z" fill="#121212"/>
<path d="M44.6214 7H47.2663C47.2564 5.00142 45.7152 3.67898 43.2493 3.67898C40.8281 3.67898 39.1179 4.98153 39.1328 6.92045C39.1278 8.51136 40.2315 9.39631 42.0362 9.78409L43.0504 10.0028C44.1839 10.2514 44.5717 10.5348 44.5817 10.9972C44.5717 11.4993 44.1143 11.8523 43.2294 11.8523C42.1705 11.8523 41.544 11.3551 41.4993 10.4205H38.8743C38.8842 12.9759 40.6143 14.1193 43.2692 14.1193C45.8494 14.1193 47.3956 13.0057 47.4055 10.9972C47.3956 9.44602 46.4709 8.35724 44.2237 7.875L43.3885 7.69602C42.424 7.49219 41.9915 7.20881 42.0163 6.72159C42.0213 6.27415 42.3942 5.94602 43.2493 5.94602C44.1442 5.94602 44.5668 6.33878 44.6214 7ZM53.0508 6.36364H51.7383V4.53409H48.994V6.36364H48.0195V8.35227H48.994V11.8026C48.9741 13.4034 49.9634 14.2138 51.8576 14.1094C52.479 14.0746 52.9414 13.9453 53.19 13.8707L52.7923 11.9418C52.6879 11.9666 52.4194 12.0213 52.2553 12.0213C51.8974 12.0213 51.7383 11.8622 51.7383 11.544V8.35227H53.0508V6.36364ZM56.2985 14.1193C57.2928 14.1193 58.0435 13.7812 58.5059 12.9261H58.5655V14H61.1309V8.76989C61.1309 7.35795 59.7935 6.2642 57.611 6.2642C55.329 6.2642 54.2054 7.45739 54.111 8.84943H56.6365C56.7012 8.37713 57.0492 8.15341 57.5712 8.15341C58.0485 8.15341 58.3865 8.37216 58.3865 8.76989V8.78977C58.3865 9.23224 57.8993 9.37145 56.6167 9.46591C55.0407 9.58026 53.8127 10.2166 53.8127 11.892C53.8127 13.4134 54.8368 14.1193 56.2985 14.1193ZM57.1934 12.3892C56.726 12.3892 56.3979 12.1605 56.3979 11.733C56.3979 11.3402 56.6763 11.0369 57.3127 10.9375C57.7502 10.8679 58.1181 10.7784 58.4064 10.6591V11.2955C58.4064 11.9915 57.8148 12.3892 57.1934 12.3892ZM66.1211 14.1392C68.3832 14.1392 69.7702 12.8416 69.8001 10.8182H67.2546C67.195 11.6186 66.7624 12.0511 66.1609 12.0511C65.44 12.0511 64.9677 11.4347 64.9677 10.1818C64.9677 8.92898 65.44 8.3125 66.1609 8.3125C66.7674 8.3125 67.18 8.74503 67.2546 9.54545H69.8001C69.7852 7.55682 68.3683 6.2642 66.1211 6.2642C63.6353 6.2642 62.1637 7.85511 62.1637 10.2017C62.1637 12.5483 63.6353 14.1392 66.1211 14.1392ZM70.9324 14H73.6767V11.8324L74.0893 11.3104L75.6454 14H78.7875L76.1127 9.70952L78.7079 6.36364H75.6255L73.7761 8.92898H73.6767V3.81818H70.9324V14ZM82.7672 14.1392C84.8851 14.1392 86.2473 13.125 86.5059 11.5341H84.0002C83.8411 11.9666 83.3887 12.2102 82.8269 12.2102C82.0115 12.2102 81.5343 11.6733 81.5343 10.9375V10.8182H86.5059V10.1818C86.5059 7.75071 85.0144 6.2642 82.7076 6.2642C80.3411 6.2642 78.8297 7.83523 78.8297 10.2017C78.8297 12.6726 80.3212 14.1392 82.7672 14.1392ZM81.5343 9.30682C81.5492 8.6456 82.0961 8.19318 82.7672 8.19318C83.4483 8.19318 83.9654 8.65057 83.9803 9.30682H81.5343ZM87.6257 14H90.37V10.0227C90.37 9.14773 90.9716 8.57102 91.782 8.57102C92.0653 8.57102 92.5227 8.61577 92.7962 8.71023V6.36861C92.5774 6.30398 92.3388 6.2642 92.1001 6.2642C91.2848 6.2642 90.6484 6.74148 90.37 7.81534H90.2905V6.36364H87.6257V14Z" fill="#121212"/>
<path d="M0.884943 31H3.03764V26.794H7.40767V31H9.5554V20.8182H7.40767V25.0192H3.03764V20.8182H0.884943V31ZM13.468 31.1442C14.5966 31.1442 15.3274 30.652 15.7003 29.9411H15.7599V31H17.7685V25.8494C17.7685 24.0298 16.2273 23.2642 14.527 23.2642C12.6974 23.2642 11.4943 24.1392 11.201 25.5312L13.1598 25.6903C13.304 25.1832 13.7564 24.8104 14.517 24.8104C15.2379 24.8104 15.6506 25.1733 15.6506 25.7997V25.8295C15.6506 26.3217 15.1286 26.3864 13.8011 26.5156C12.2898 26.6548 10.9325 27.1619 10.9325 28.8672C10.9325 30.3786 12.0114 31.1442 13.468 31.1442ZM14.0746 29.6825C13.4233 29.6825 12.956 29.3793 12.956 28.7976C12.956 28.201 13.4482 27.9077 14.1939 27.8033C14.6562 27.7386 15.4119 27.6293 15.6655 27.4602V28.2706C15.6655 29.071 15.0043 29.6825 14.0746 29.6825ZM19.4513 31H21.5394V29.777H21.6339C21.9272 30.4134 22.5685 31.1243 23.8015 31.1243C25.5415 31.1243 26.8988 29.7472 26.8988 27.1918C26.8988 24.5668 25.4819 23.2642 23.8065 23.2642C22.5288 23.2642 21.9173 24.0249 21.6339 24.6463H21.5692V20.8182H19.4513V31ZM21.5245 27.1818C21.5245 25.8196 22.1012 24.9496 23.1303 24.9496C24.1793 24.9496 24.7362 25.8594 24.7362 27.1818C24.7362 28.5142 24.1694 29.4389 23.1303 29.4389C22.1112 29.4389 21.5245 28.544 21.5245 27.1818ZM28.312 31H30.4299V23.3636H28.312V31ZM29.3759 22.3793C30.0073 22.3793 30.5243 21.897 30.5243 21.3054C30.5243 20.7188 30.0073 20.2365 29.3759 20.2365C28.7495 20.2365 28.2324 20.7188 28.2324 21.3054C28.2324 21.897 28.7495 22.3793 29.3759 22.3793ZM36.1882 23.3636H34.7514V21.5341H32.6335V23.3636H31.5895V24.9545H32.6335V28.9318C32.6236 30.4283 33.6428 31.169 35.179 31.1044C35.7259 31.0845 36.1136 30.9751 36.3274 30.9055L35.9943 29.3295C35.8899 29.3494 35.6662 29.3991 35.4673 29.3991C35.0447 29.3991 34.7514 29.2401 34.7514 28.6534V24.9545H36.1882V23.3636Z" fill="#121212"/>
<path d="M45.1449 24H47.7898C47.7798 22.0014 46.2386 20.679 43.7727 20.679C41.3516 20.679 39.6413 21.9815 39.6562 23.9205C39.6513 25.5114 40.755 26.3963 42.5597 26.7841L43.5739 27.0028C44.7074 27.2514 45.0952 27.5348 45.1051 27.9972C45.0952 28.4993 44.6378 28.8523 43.7528 28.8523C42.6939 28.8523 42.0675 28.3551 42.0227 27.4205H39.3977C39.4077 29.9759 41.1378 31.1193 43.7926 31.1193C46.3729 31.1193 47.919 30.0057 47.929 27.9972C47.919 26.446 46.9943 25.3572 44.7472 24.875L43.9119 24.696C42.9474 24.4922 42.5149 24.2088 42.5398 23.7216C42.5447 23.2741 42.9176 22.946 43.7727 22.946C44.6676 22.946 45.0902 23.3388 45.1449 24ZM53.5742 23.3636H52.2617V21.5341H49.5174V23.3636H48.543V25.3523H49.5174V28.8026C49.4975 30.4034 50.4869 31.2138 52.381 31.1094C53.0025 31.0746 53.4648 30.9453 53.7134 30.8707L53.3157 28.9418C53.2113 28.9666 52.9428 29.0213 52.7788 29.0213C52.4208 29.0213 52.2617 28.8622 52.2617 28.544V25.3523H53.5742V23.3636ZM56.8219 31.1193C57.8162 31.1193 58.5669 30.7812 59.0293 29.9261H59.089V31H61.6543V25.7699C61.6543 24.358 60.3169 23.2642 58.1344 23.2642C55.8525 23.2642 54.7289 24.4574 54.6344 25.8494H57.16C57.2246 25.3771 57.5726 25.1534 58.0946 25.1534C58.5719 25.1534 58.91 25.3722 58.91 25.7699V25.7898C58.91 26.2322 58.4228 26.3714 57.1401 26.4659C55.5641 26.5803 54.3361 27.2166 54.3361 28.892C54.3361 30.4134 55.3603 31.1193 56.8219 31.1193ZM57.7168 29.3892C57.2495 29.3892 56.9213 29.1605 56.9213 28.733C56.9213 28.3402 57.1998 28.0369 57.8361 27.9375C58.2736 27.8679 58.6415 27.7784 58.9299 27.6591V28.2955C58.9299 28.9915 58.3382 29.3892 57.7168 29.3892ZM66.6445 31.1392C68.9066 31.1392 70.2937 29.8416 70.3235 27.8182H67.7781C67.7184 28.6186 67.2859 29.0511 66.6843 29.0511C65.9634 29.0511 65.4911 28.4347 65.4911 27.1818C65.4911 25.929 65.9634 25.3125 66.6843 25.3125C67.2908 25.3125 67.7035 25.745 67.7781 26.5455H70.3235C70.3086 24.5568 68.8917 23.2642 66.6445 23.2642C64.1587 23.2642 62.6871 24.8551 62.6871 27.2017C62.6871 29.5483 64.1587 31.1392 66.6445 31.1392ZM71.4558 31H74.2001V28.8324L74.6127 28.3104L76.1689 31H79.3109L76.6362 26.7095L79.2314 23.3636H76.149L74.2995 25.929H74.2001V20.8182H71.4558V31ZM83.2907 31.1392C85.4086 31.1392 86.7708 30.125 87.0293 28.5341H84.5236C84.3645 28.9666 83.9121 29.2102 83.3503 29.2102C82.535 29.2102 82.0577 28.6733 82.0577 27.9375V27.8182H87.0293V27.1818C87.0293 24.7507 85.5378 23.2642 83.231 23.2642C80.8645 23.2642 79.3532 24.8352 79.3532 27.2017C79.3532 29.6726 80.8446 31.1392 83.2907 31.1392ZM82.0577 26.3068C82.0726 25.6456 82.6195 25.1932 83.2907 25.1932C83.9718 25.1932 84.4888 25.6506 84.5037 26.3068H82.0577ZM88.1491 31H90.8935V27.0227C90.8935 26.1477 91.495 25.571 92.3054 25.571C92.5888 25.571 93.0462 25.6158 93.3196 25.7102V23.3686C93.1009 23.304 92.8622 23.2642 92.6236 23.2642C91.8082 23.2642 91.1719 23.7415 90.8935 24.8153H90.8139V23.3636H88.1491V31Z" fill="#121212"/>
<path d="M0.65625 48H3.42045V44.0227H7.07955V48H9.84375V37.8182H7.07955V41.7955H3.42045V37.8182H0.65625V48ZM13.3239 48.1193C14.3182 48.1193 15.0689 47.7812 15.5312 46.9261H15.5909V48H18.1562V42.7699C18.1562 41.358 16.8189 40.2642 14.6364 40.2642C12.3544 40.2642 11.2308 41.4574 11.1364 42.8494H13.6619C13.7266 42.3771 14.0746 42.1534 14.5966 42.1534C15.0739 42.1534 15.4119 42.3722 15.4119 42.7699V42.7898C15.4119 43.2322 14.9247 43.3714 13.642 43.4659C12.0661 43.5803 10.8381 44.2166 10.8381 45.892C10.8381 47.4134 11.8622 48.1193 13.3239 48.1193ZM14.2188 46.3892C13.7514 46.3892 13.4233 46.1605 13.4233 45.733C13.4233 45.3402 13.7017 45.0369 14.3381 44.9375C14.7756 44.8679 15.1435 44.7784 15.4318 44.6591V45.2955C15.4318 45.9915 14.8402 46.3892 14.2188 46.3892ZM19.4277 48H22.1522V46.7472H22.2118C22.53 47.5227 23.2658 48.0994 24.3397 48.0994C25.9703 48.0994 27.3425 46.8267 27.3425 44.1818C27.3425 41.4176 25.8709 40.2642 24.3596 40.2642C23.226 40.2642 22.5101 40.9205 22.2118 41.696H22.1721V37.8182H19.4277V48ZM22.1124 44.1818C22.1124 43.0483 22.5698 42.3722 23.3255 42.3722C24.0811 42.3722 24.5186 43.0483 24.5186 44.1818C24.5186 45.3153 24.0811 45.9915 23.3255 45.9915C22.5698 45.9915 22.1124 45.2955 22.1124 44.1818ZM28.4909 48H31.2353V40.3636H28.4909V48ZM29.8631 39.5682C30.6088 39.5682 31.2154 39.0064 31.2154 38.3153C31.2154 37.6243 30.6088 37.0625 29.8631 37.0625C29.1174 37.0625 28.5108 37.6243 28.5108 38.3153C28.5108 39.0064 29.1174 39.5682 29.8631 39.5682ZM37.1875 40.3636H35.875V38.5341H33.1307V40.3636H32.1562V42.3523H33.1307V45.8026C33.1108 47.4034 34.1001 48.2138 35.9943 48.1094C36.6158 48.0746 37.0781 47.9453 37.3267 47.8707L36.929 45.9418C36.8246 45.9666 36.5561 46.0213 36.392 46.0213C36.0341 46.0213 35.875 45.8622 35.875 45.544V42.3523H37.1875V40.3636Z" fill="#121212"/>
<path d="M46.6214 41H49.2663C49.2564 39.0014 47.7152 37.679 45.2493 37.679C42.8281 37.679 41.1179 38.9815 41.1328 40.9205C41.1278 42.5114 42.2315 43.3963 44.0362 43.7841L45.0504 44.0028C46.1839 44.2514 46.5717 44.5348 46.5817 44.9972C46.5717 45.4993 46.1143 45.8523 45.2294 45.8523C44.1705 45.8523 43.544 45.3551 43.4993 44.4205H40.8743C40.8842 46.9759 42.6143 48.1193 45.2692 48.1193C47.8494 48.1193 49.3956 47.0057 49.4055 44.9972C49.3956 43.446 48.4709 42.3572 46.2237 41.875L45.3885 41.696C44.424 41.4922 43.9915 41.2088 44.0163 40.7216C44.0213 40.2741 44.3942 39.946 45.2493 39.946C46.1442 39.946 46.5668 40.3388 46.6214 41ZM55.0508 40.3636H53.7383V38.5341H50.994V40.3636H50.0195V42.3523H50.994V45.8026C50.9741 47.4034 51.9634 48.2138 53.8576 48.1094C54.479 48.0746 54.9414 47.9453 55.19 47.8707L54.7923 45.9418C54.6879 45.9666 54.4194 46.0213 54.2553 46.0213C53.8974 46.0213 53.7383 45.8622 53.7383 45.544V42.3523H55.0508V40.3636ZM58.2985 48.1193C59.2928 48.1193 60.0435 47.7812 60.5059 46.9261H60.5655V48H63.1309V42.7699C63.1309 41.358 61.7935 40.2642 59.611 40.2642C57.329 40.2642 56.2054 41.4574 56.111 42.8494H58.6365C58.7012 42.3771 59.0492 42.1534 59.5712 42.1534C60.0485 42.1534 60.3865 42.3722 60.3865 42.7699V42.7898C60.3865 43.2322 59.8993 43.3714 58.6167 43.4659C57.0407 43.5803 55.8127 44.2166 55.8127 45.892C55.8127 47.4134 56.8368 48.1193 58.2985 48.1193ZM59.1934 46.3892C58.726 46.3892 58.3979 46.1605 58.3979 45.733C58.3979 45.3402 58.6763 45.0369 59.3127 44.9375C59.7502 44.8679 60.1181 44.7784 60.4064 44.6591V45.2955C60.4064 45.9915 59.8148 46.3892 59.1934 46.3892ZM68.1211 48.1392C70.3832 48.1392 71.7702 46.8416 71.8001 44.8182H69.2546C69.195 45.6186 68.7624 46.0511 68.1609 46.0511C67.44 46.0511 66.9677 45.4347 66.9677 44.1818C66.9677 42.929 67.44 42.3125 68.1609 42.3125C68.7674 42.3125 69.18 42.745 69.2546 43.5455H71.8001C71.7852 41.5568 70.3683 40.2642 68.1211 40.2642C65.6353 40.2642 64.1637 41.8551 64.1637 44.2017C64.1637 46.5483 65.6353 48.1392 68.1211 48.1392ZM72.9324 48H75.6767V45.8324L76.0893 45.3104L77.6454 48H80.7875L78.1127 43.7095L80.7079 40.3636H77.6255L75.7761 42.929H75.6767V37.8182H72.9324V48ZM84.7672 48.1392C86.8851 48.1392 88.2473 47.125 88.5059 45.5341H86.0002C85.8411 45.9666 85.3887 46.2102 84.8269 46.2102C84.0115 46.2102 83.5343 45.6733 83.5343 44.9375V44.8182H88.5059V44.1818C88.5059 41.7507 87.0144 40.2642 84.7076 40.2642C82.3411 40.2642 80.8297 41.8352 80.8297 44.2017C80.8297 46.6726 82.3212 48.1392 84.7672 48.1392ZM83.5343 43.3068C83.5492 42.6456 84.0961 42.1932 84.7672 42.1932C85.4483 42.1932 85.9654 42.6506 85.9803 43.3068H83.5343ZM89.6257 48H92.37V44.0227C92.37 43.1477 92.9716 42.571 93.782 42.571C94.0653 42.571 94.5227 42.6158 94.7962 42.7102V40.3686C94.5774 40.304 94.3388 40.2642 94.1001 40.2642C93.2848 40.2642 92.6484 40.7415 92.37 41.8153H92.2905V40.3636H89.6257V48Z" fill="#121212"/>
</svg>
